# xmcd
#
# Track frame offsets: 
#        150
#        17628
#        30515
#        50982
#        66142
#
# Disc length: 1148 seconds
#
# Revision: 0
# Processed by: cddbd v1.5.2PL0 Copyright (c) Steve Scherf et al.
# Submitted via: ExactAudioCopy v0.99pb4
#
DISCID=3d047a05
DTITLE=Mark Miller - Stained
DYEAR=2011
DGENRE=Folk/Rock
TTITLE0=Stained 
TTITLE1=So Lonesome Now
TTITLE2=The Heart She Has
TTITLE3=Rain Can't Bring Me Down
TTITLE4=Righteous Path
EXTD=
EXTT0=
EXTT1=
EXTT2=
EXTT3=
EXTT4=
PLAYORDER=
